<svg width="2043" height="1151" xmlns="http://www.w3.org/2000/svg" xmlns:xlink="http://www.w3.org/1999/xlink" xml:space="preserve" overflow="hidden"><defs><clipPath id="clip0"><rect x="2911" y="-1" width="2043" height="1151"/></clipPath></defs><g clip-path="url(#clip0)" transform="translate(-2911 1)"><rect x="2912" y="0" width="2040" height="1148" fill="#FFFFFF"/><g><path d="M3203.5 654.522 4888.5 654.522M3203.5 504.517 4888.5 504.517M3203.5 354.512 4888.5 354.512M3203.5 203.507 4888.5 203.507M3203.5 53.5001 4888.5 53.5001" stroke="#D9D9D9" stroke-width="3.4375" stroke-linejoin="round" stroke-miterlimit="10" fill="none"/></g><g><path d="M3244.61 53.5001 3244.61 805.5M3285.61 53.5001 3285.61 805.5M3326.61 53.5001 3326.61 805.5M3367.61 53.5001 3367.61 805.5M3408.61 53.5001 3408.61 805.5M3449.61 53.5001 3449.61 805.5M3491.61 53.5001 3491.61 805.5M3532.62 53.5001 3532.62 805.5M3573.62 53.5001 3573.62 805.5M3614.62 53.5001 3614.62 805.5M3655.62 53.5001 3655.62 805.5M3696.62 53.5001 3696.62 805.5M3737.62 53.5001 3737.62 805.5M3778.62 53.5001 3778.62 805.5M3819.63 53.5001 3819.63 805.5M3860.63 53.5001 3860.63 805.5M3902.63 53.5001 3902.63 805.5M3943.63 53.5001 3943.63 805.5M3984.63 53.5001 3984.63 805.5M4025.63 53.5001 4025.63 805.5M4066.63 53.5001 4066.63 805.5M4107.63 53.5001 4107.63 805.5M4148.64 53.5001 4148.64 805.5M4189.64 53.5001 4189.64 805.5M4230.64 53.5001 4230.64 805.5M4272.64 53.5001 4272.64 805.5M4313.64 53.5001 4313.64 805.5M4354.64 53.5001 4354.64 805.5M4395.64 53.5001 4395.64 805.5M4436.65 53.5001 4436.65 805.5M4477.65 53.5001 4477.65 805.5M4518.65 53.5001 4518.65 805.5M4559.65 53.5001 4559.65 805.5M4600.65 53.5001 4600.65 805.5M4642.65 53.5001 4642.65 805.5M4683.65 53.5001 4683.65 805.5M4724.66 53.5001 4724.66 805.5M4765.66 53.5001 4765.66 805.5M4806.66 53.5001 4806.66 805.5M4847.66 53.5001 4847.66 805.5M4888.5 53.5001 4888.5 805.5" stroke="#D9D9D9" stroke-width="3.4375" stroke-linejoin="round" stroke-miterlimit="10" fill="none"/></g><g><path d="M0 0 0.000360892 752" stroke="#BFBFBF" stroke-width="3.4375" stroke-linejoin="round" stroke-miterlimit="10" fill="none" fill-rule="evenodd" transform="matrix(1 0 0 -1 3203.5 805.5)"/></g><g><path d="M3203.5 805.5 4888.5 805.5" stroke="#BFBFBF" stroke-width="3.4375" stroke-linejoin="round" stroke-miterlimit="10" fill="none" fill-rule="evenodd"/></g><g><path d="M3223.5 805.5 3264.61 805.5 3306.61 805.5 3347.61 805.5 3388.61 805.5 3429.61 805.5 3470.61 805.5 3511.62 805.5 3552.62 805.5 3593.62 805.5 3634.62 805.5 3675.62 805.5 3717.62 805.5 3758.62 805.5 3799.62 805.5 3840.63 805.5 3881.63 805.5 3922.63 805.5 3963.63 805.5 4004.63 805.5 4045.63 805.5 4087.63 805.5 4128.64 805.5 4169.64 805.5 4210.64 805.5 4251.64 805.5 4292.64 805.5 4333.64 805.5 4374.64 805.5 4415.65 805.5 4457.65 805.5 4498.65 805.5 4539.65 805.5 4580.65 805.5 4621.65 805.5 4662.65 805.5 4703.65 805.5 4744.66 805.5 4785.66 805.5 4827.66 805.5 4868.5 805.5" stroke="#4472C4" stroke-width="6.875" stroke-linecap="round" stroke-linejoin="round" stroke-miterlimit="10" fill="none"/></g><g><path d="M3223.5 805.5 3264.61 805.5 3306.61 805.5 3347.61 805.5 3388.61 805.5 3429.61 805.5 3470.61 805.5 3511.62 805.5 3552.62 805.5 3593.62 805.5 3634.62 805.5 3675.62 805.5 3717.62 804.527 3758.62 803.526 3799.62 803.526 3840.63 804.527 3881.63 803.526 3922.63 802.526 3963.63 803.526 4004.63 802.526 4045.63 803.526 4087.63 803.526 4128.64 803.526 4169.64 802.526 4210.64 800.526 4251.64 802.526 4292.64 800.526 4333.64 799.526 4374.64 796.5 4415.65 799.526 4457.65 799.526 4498.65 805.5 4539.65 805.5 4580.65 805.5 4621.65 805.5 4662.65 805.5 4703.65 805.5 4744.66 805.5 4785.66 805.5 4827.66 805.5 4868.5 805.5" stroke="#ED7D31" stroke-width="6.875" stroke-linecap="round" stroke-linejoin="round" stroke-miterlimit="10" fill="none"/></g><g><text font-family="Times New Roman,Times New Roman_MSFontService,sans-serif" font-weight="400" font-size="55" transform="matrix(1 0 0 1 3129.04 822)">0</text></g><g><text font-family="Times New Roman,Times New Roman_MSFontService,sans-serif" font-weight="400" font-size="55" transform="matrix(1 0 0 1 3074.04 672)">500</text></g><g><text font-family="Times New Roman,Times New Roman_MSFontService,sans-serif" font-weight="400" font-size="55" transform="matrix(1 0 0 1 3046.54 522)">1000</text></g><g><text font-family="Times New Roman,Times New Roman_MSFontService,sans-serif" font-weight="400" font-size="55" transform="matrix(1 0 0 1 3046.54 371)">1500</text></g><g><text font-family="Times New Roman,Times New Roman_MSFontService,sans-serif" font-weight="400" font-size="55" transform="matrix(1 0 0 1 3046.54 221)">2000</text></g><g><text font-family="Times New Roman,Times New Roman_MSFontService,sans-serif" font-weight="400" font-size="55" transform="matrix(1 0 0 1 3046.54 70)">2500</text></g><g><text font-family="Times New Roman,Times New Roman_MSFontService,sans-serif" font-weight="400" font-size="55" transform="matrix(1 0 0 1 3187.24 887)">-90</text></g><g><text font-family="Times New Roman,Times New Roman_MSFontService,sans-serif" font-weight="400" font-size="55" transform="matrix(1 0 0 1 3269.46 887)">-88</text></g><g><text font-family="Times New Roman,Times New Roman_MSFontService,sans-serif" font-weight="400" font-size="55" transform="matrix(1 0 0 1 3351.68 887)">-86</text></g><g><text font-family="Times New Roman,Times New Roman_MSFontService,sans-serif" font-weight="400" font-size="55" transform="matrix(1 0 0 1 3433.9 887)">-84</text></g><g><text font-family="Times New Roman,Times New Roman_MSFontService,sans-serif" font-weight="400" font-size="55" transform="matrix(1 0 0 1 3516.13 887)">-82</text></g><g><text font-family="Times New Roman,Times New Roman_MSFontService,sans-serif" font-weight="400" font-size="55" transform="matrix(1 0 0 1 3598.35 887)">-80</text></g><g><text font-family="Times New Roman,Times New Roman_MSFontService,sans-serif" font-weight="400" font-size="55" transform="matrix(1 0 0 1 3680.57 887)">-78</text></g><g><text font-family="Times New Roman,Times New Roman_MSFontService,sans-serif" font-weight="400" font-size="55" transform="matrix(1 0 0 1 3762.79 887)">-76</text></g><g><text font-family="Times New Roman,Times New Roman_MSFontService,sans-serif" font-weight="400" font-size="55" transform="matrix(1 0 0 1 3845.01 887)">-74</text></g><g><text font-family="Times New Roman,Times New Roman_MSFontService,sans-serif" font-weight="400" font-size="55" transform="matrix(1 0 0 1 3927.24 887)">-72</text></g><g><text font-family="Times New Roman,Times New Roman_MSFontService,sans-serif" font-weight="400" font-size="55" transform="matrix(1 0 0 1 4009.46 887)">-70</text></g><g><text font-family="Times New Roman,Times New Roman_MSFontService,sans-serif" font-weight="400" font-size="55" transform="matrix(1 0 0 1 4091.68 887)">-68</text></g><g><text font-family="Times New Roman,Times New Roman_MSFontService,sans-serif" font-weight="400" font-size="55" transform="matrix(1 0 0 1 4173.9 887)">-66</text></g><g><text font-family="Times New Roman,Times New Roman_MSFontService,sans-serif" font-weight="400" font-size="55" transform="matrix(1 0 0 1 4256.12 887)">-64</text></g><g><text font-family="Times New Roman,Times New Roman_MSFontService,sans-serif" font-weight="400" font-size="55" transform="matrix(1 0 0 1 4338.35 887)">-62</text></g><g><text font-family="Times New Roman,Times New Roman_MSFontService,sans-serif" font-weight="400" font-size="55" transform="matrix(1 0 0 1 4420.57 887)">-60</text></g><g><text font-family="Times New Roman,Times New Roman_MSFontService,sans-serif" font-weight="400" font-size="55" transform="matrix(1 0 0 1 4502.79 887)">-58</text></g><g><text font-family="Times New Roman,Times New Roman_MSFontService,sans-serif" font-weight="400" font-size="55" transform="matrix(1 0 0 1 4585.01 887)">-56</text></g><g><text font-family="Times New Roman,Times New Roman_MSFontService,sans-serif" font-weight="400" font-size="55" transform="matrix(1 0 0 1 4667.23 887)">-54</text></g><g><text font-family="Times New Roman,Times New Roman_MSFontService,sans-serif" font-weight="400" font-size="55" transform="matrix(1 0 0 1 4749.46 887)">-52</text></g><g><text font-family="Times New Roman,Times New Roman_MSFontService,sans-serif" font-weight="400" font-size="55" transform="matrix(1 0 0 1 4831.68 887)">-50</text></g><g><text font-family="Times New Roman,Times New Roman_MSFontService,sans-serif" font-weight="400" font-size="55" transform="matrix(6.12323e-17 -1 1 6.12323e-17 3030.52 970)">Number of Retries over 5 s Window</text></g><g><text font-family="Times New Roman,Times New Roman_MSFontService,sans-serif" font-weight="400" font-size="55" transform="matrix(1 0 0 1 3820.02 964)">Signal Power (dBm)</text></g><g><path d="M3369.5 1076.5 3457.5 1076.5" stroke="#4472C4" stroke-width="6.875" stroke-linecap="round" stroke-linejoin="round" stroke-miterlimit="10" fill="none" fill-rule="evenodd"/></g><g><text font-family="Times New Roman,Times New Roman_MSFontService,sans-serif" font-weight="400" font-size="55" transform="matrix(1 0 0 1 3466.83 1094)">20 MHz Test Signal</text></g><g><path d="M3996.5 1076.5 4084.5 1076.5" stroke="#ED7D31" stroke-width="6.875" stroke-linecap="round" stroke-linejoin="round" stroke-miterlimit="10" fill="none" fill-rule="evenodd"/></g><g><text font-family="Times New Roman,Times New Roman_MSFontService,sans-serif" font-weight="400" font-size="55" transform="matrix(1 0 0 1 4093.47 1094)">2 MHz Test Signal</text></g><rect x="2912.5" y="0.499836" width="2040" height="1148" stroke="#D9D9D9" stroke-width="3.4375" stroke-linejoin="round" stroke-miterlimit="10" fill="none"/></g></svg>